HIERARCHY
ROOT Hips
{
	OFFSET 0.000000 0.000000 0.000000 
	CHANNELS 6 Xposition Yposition Zposition Zrotation Yrotation Xrotation
	JOINT LeftUpLeg
	{
		OFFSET 1.363060 -1.794630 0.839290 
		CHANNELS 3 Zrotation Yrotation Xrotation
		JOINT LeftLeg
		{
			OFFSET 2.448110 -6.726130 0.000000 
			CHANNELS 3 Zrotation Yrotation Xrotation
			JOINT LeftFoot
			{
				OFFSET 2.562200 -7.039590 0.000000 
				CHANNELS 3 Zrotation Yrotation Xrotation
				JOINT LeftToeBase
				{
					OFFSET 0.157640 -0.433110 2.322550 
					CHANNELS 3 Zrotation Yrotation Xrotation
					End Site
					{
						OFFSET 0.000000 0.000000 0.000000 
					}
				}
			}
		}
	}
	JOINT RightUpLeg
	{
		OFFSET -1.305520 -1.794630 0.839290 
		CHANNELS 3 Zrotation Yrotation Xrotation
		JOINT RightLeg
		{
			OFFSET -2.542530 -6.985550 0.000000 
			CHANNELS 3 Zrotation Yrotation Xrotation
			JOINT RightFoot
			{
				OFFSET -2.568260 -7.056230 0.000000 
				CHANNELS 3 Zrotation Yrotation Xrotation
				JOINT RightToeBase
				{
					OFFSET -0.164730 -0.452590 2.363150 
					CHANNELS 3 Zrotation Yrotation Xrotation
					End Site
					{
						OFFSET 0.000000 0.000000 0.000000 
					}
				}
			}
		}
	}
	JOINT Spine
	{
		OFFSET 0.028270 2.035590 -0.193380 
		CHANNELS 3 Zrotation Yrotation Xrotation
		JOINT Spine1
		{
			OFFSET 0.056720 2.048850 -0.042750 
			CHANNELS 3 Zrotation Yrotation Xrotation
			JOINT Neck1
			{
				OFFSET -0.054170 1.746240 0.172020 
				CHANNELS 3 Zrotation Yrotation Xrotation
				JOINT Head
				{
					OFFSET 0.104070 1.761360 -0.123970 
					CHANNELS 3 Zrotation Yrotation Xrotation
					End Site
					{
						OFFSET 0.000000 0.000000 0.000000 
					}
				}
			}
			JOINT LeftArm
			{
				OFFSET 3.362410 1.200890 -0.311210 
				CHANNELS 3 Zrotation Yrotation Xrotation
				JOINT LeftForeArm
				{
					OFFSET 4.983000 -0.000000 -0.000000 
					CHANNELS 3 Zrotation Yrotation Xrotation
					JOINT LeftHand
					{
						OFFSET 3.483560 -0.000000 -0.000000 
						CHANNELS 3 Zrotation Yrotation Xrotation
						JOINT LeftHandIndex1
						{
							OFFSET 0.715260 -0.000000 -0.000000 
							CHANNELS 3 Zrotation Yrotation Xrotation
							End Site
							{
								OFFSET 0.000000 0.000000 0.000000 
							}
						}
					}
				}
			}
			JOINT RightArm
			{
				OFFSET -3.136600 1.374050 -0.404650 
				CHANNELS 3 Zrotation Yrotation Xrotation
				JOINT RightForeArm
				{
					OFFSET -5.241900 -0.000000 -0.000000 
					CHANNELS 3 Zrotation Yrotation Xrotation
					JOINT RightHand
					{
						OFFSET -3.444170 -0.000000 -0.000000 
						CHANNELS 3 Zrotation Yrotation Xrotation
						JOINT RightHandIndex1
						{
							OFFSET -0.622530 -0.000000 -0.000000 
							CHANNELS 3 Zrotation Yrotation Xrotation
							End Site
							{
								OFFSET 0.000000 0.000000 0.000000 
							}
						}
					}
				}
			}
		}
	}
}
MOTION
Frames: 12
Frame Time: 0.041667
3.648567 16.978460 7.474964 -152.539866 65.904610 -142.508825 -10.834758 10.343076 -12.114727 21.221088 19.690000 93.564150 -1.443157 6.490342 10.442415 0.018200 -0.871600 -2.395500 6.080039 0.365688 -30.487968 -2.208199 -14.243484 35.962522 -0.137900 -5.028154 13.359260 -5.640700 14.070900 -43.522300 1.341775 1.481326 -2.476129 3.359445 -0.238350 2.636965 1.470746 0.156391 4.492138 2.513200 1.311600 -2.696400 -80.205682 14.332287 55.298563 26.332246 -43.993091 -12.341793 -1.857397 -2.583853 -14.660792 -7.125000 0.000000 0.000000 71.292565 40.256692 39.534239 -79.136343 54.355965 -60.788304 0.110704 -0.449054 26.012027 7.125000 0.000000 0.000000 
4.132084 16.959973 7.302500 -150.735233 65.063782 -141.846683 -9.643299 10.376347 -14.353867 22.608145 19.723888 97.677712 -1.309631 6.104432 10.661935 0.004400 -0.429800 -1.180900 7.306142 -0.516481 -28.623437 -2.350302 -14.116823 36.503923 0.492203 -6.079578 11.020263 -6.283200 14.697300 -46.108100 1.315672 2.243271 -2.403765 3.059187 0.244736 2.655480 1.511580 -0.551210 4.224254 2.762600 1.067600 -2.746000 -79.594628 15.257837 55.744201 24.394971 -42.626782 -11.173316 -1.864198 -2.701856 -14.119433 -7.125000 0.000000 0.000000 70.240810 40.854795 41.112741 -71.031838 52.560420 -52.712009 -0.205586 -0.680181 26.624757 7.125000 0.000000 0.000000 
4.622162 16.971542 7.115486 -149.764494 64.620542 -141.453297 -8.916607 11.076927 -17.412792 23.554823 19.784929 100.877292 -0.400808 2.786558 11.170014 0.051800 -1.469000 -4.040400 8.025640 -1.296779 -26.917920 -2.463865 -13.912818 36.495671 2.046596 -9.035356 8.861625 -7.147000 15.454400 -49.428100 1.258442 3.013978 -2.343315 2.739331 0.753625 2.693976 1.606366 -1.450064 4.007431 3.014000 0.732000 -2.928000 -78.466009 16.303430 56.596992 23.080530 -41.726669 -10.427658 -1.855448 -2.877799 -14.103553 -7.125000 0.000000 0.000000 69.340232 41.760397 42.009189 -61.395416 50.136484 -43.147559 -0.572439 -0.968185 26.935172 7.125000 0.000000 0.000000 
5.101982 16.988001 6.943619 -150.061652 64.370293 -141.897057 -9.291261 11.202261 -20.896334 24.290106 19.865654 103.338180 0.027351 0.971568 12.025910 0.058200 -1.557300 -4.283600 8.071731 -1.509248 -25.585880 -2.357489 -13.694134 36.481027 1.162074 -7.234891 8.144328 -6.674000 15.051100 -47.630400 1.190671 3.740134 -2.308276 2.699473 1.204129 2.660014 1.757919 -2.376582 3.797370 3.256700 0.381000 -3.170700 -76.992704 17.474219 57.780695 22.311930 -41.296269 -10.015357 -1.836710 -3.051306 -14.409450 -7.125000 0.000000 0.000000 68.465868 42.948399 41.275003 -51.405329 46.996944 -33.937314 -0.990814 -1.359757 27.393197 7.125000 0.000000 0.000000 
5.572261 16.991102 6.785230 -151.167199 64.270457 -142.943485 -10.337697 10.939399 -24.466951 24.812419 19.972949 105.200682 0.251740 -0.295538 11.729926 0.122800 -2.259200 -6.222700 7.883109 -1.706515 -24.328612 -2.401094 -13.515749 36.472847 1.402158 -7.649125 7.071291 -6.697800 15.072000 -47.721800 1.127624 4.430414 -2.273426 3.143450 1.596962 2.665420 2.077236 -3.233653 3.541164 3.432800 0.091900 -3.090300 -75.614271 18.613850 59.026641 21.937985 -41.238175 -9.831495 -1.793828 -3.195714 -15.269800 -7.125000 0.000000 0.000000 67.446139 44.309236 39.627387 -42.047629 42.997173 -25.969812 -1.385246 -1.761212 28.341221 7.125000 0.000000 0.000000 
6.049100 17.005415 6.612170 -152.316386 64.057413 -143.925685 -11.614218 10.297894 -27.855181 25.050552 20.146377 106.141696 0.394562 -1.230680 11.695267 0.108300 -2.121800 -5.842300 7.739913 -1.928948 -23.147338 -2.404691 -13.322917 36.413130 1.414901 -7.632077 6.146481 -6.655700 15.035000 -47.559800 1.079519 5.061537 -2.234464 3.605331 1.965154 2.706705 2.195134 -4.018558 3.407694 3.580900 -0.203500 -3.389500 -74.389020 19.760268 60.097897 21.700462 -41.332254 -9.742969 -1.739462 -3.313885 -16.145831 -7.125000 0.000000 0.000000 66.096420 45.963239 37.473497 -33.532223 37.991096 -19.274136 -1.788663 -2.227600 29.375508 7.125000 0.000000 0.000000 
6.496956 16.933018 6.467973 -153.126720 63.662025 -144.558510 -12.665993 9.192562 -31.368838 25.652799 20.283343 106.935095 -1.412091 5.740660 11.461764 0.088300 -1.916600 -5.275200 7.926877 -2.694270 -21.821033 -2.734172 -13.145689 36.129518 5.519917 -15.408329 4.504594 -7.943200 16.077300 -52.357700 1.033882 5.641082 -2.201329 3.950947 2.361870 2.746821 2.329713 -4.900581 3.323676 3.866300 -0.525300 -3.649800 -73.093139 20.868926 61.197501 21.581329 -41.492041 -9.734421 -1.678850 -3.430400 -16.916001 -7.125000 0.000000 0.000000 64.251947 47.888550 34.840700 -26.117012 32.188620 -13.989398 -2.208375 -2.839594 30.779250 7.125000 0.000000 0.000000 
6.966638 16.974524 6.263665 -153.404434 63.027484 -144.771035 -13.361209 8.318874 -34.340530 26.001382 20.516843 106.187874 -3.569678 13.728814 11.924851 0.005800 -0.491400 -1.350200 8.069673 -2.845667 -20.232558 -2.515078 -12.817737 35.659844 4.803985 -14.049312 4.852381 -7.762400 15.941700 -51.702300 0.986894 6.183917 -2.177455 3.999696 2.771039 2.843328 2.404457 -5.641949 3.340542 4.072100 -0.825100 -3.718300 -71.513074 21.880769 62.610452 21.879722 -41.927643 -9.982156 -1.606025 -3.574646 -17.863697 -7.125000 0.000000 0.000000 62.283149 49.877508 31.346308 -19.980843 26.222353 -10.131192 -2.755235 -3.416079 33.692284 7.125000 0.000000 0.000000 
7.429999 17.006130 6.058999 -153.546489 62.438817 -145.005963 -14.134283 7.012466 -36.914448 25.335414 20.940260 104.951549 -2.645171 9.698018 10.663939 0.243200 -3.173400 -8.762000 8.173251 -2.926432 -18.570185 -2.225357 -12.428032 34.914652 4.027391 -12.621318 5.567078 -7.569600 15.793300 -50.997000 0.935698 6.766017 -2.158065 4.036799 3.184248 2.967599 2.487948 -6.409724 3.409673 4.264500 -1.161500 -3.641000 -69.924871 22.766697 64.080919 22.450798 -42.538320 -10.391646 -1.551035 -3.707010 -18.364495 -7.125000 0.000000 0.000000 60.167946 51.748399 25.748667 -14.750149 20.509985 -7.365987 -3.651502 -3.644775 39.808103 7.125000 0.000000 0.000000 
7.894911 17.031654 5.852186 -153.721571 61.909796 -145.305873 -14.864282 5.531168 -39.200309 24.438099 21.428272 102.969659 -1.336415 4.630709 10.097857 0.463500 -4.367100 -12.111700 8.241399 -3.053715 -16.822187 -1.853210 -11.958370 33.905565 3.007986 -10.770699 6.619471 -7.373300 15.638300 -50.272300 0.875228 7.446070 -2.130299 4.188360 3.631601 3.164852 2.635165 -7.410038 3.494144 4.627500 -1.575900 -3.461100 -68.402799 23.276750 65.619862 23.037048 -43.093010 -10.780575 -1.511958 -3.806531 -18.547940 -7.125000 0.000000 0.000000 57.496919 53.282896 17.010344 -10.122903 15.193060 -5.179412 -4.261503 -3.641555 47.496952 7.125000 0.000000 0.000000 
8.371273 17.070655 5.630584 -153.771135 61.248366 -145.443815 -15.260261 4.743124 -41.308546 23.249763 21.945882 100.171022 0.686429 -3.130423 10.968980 0.153300 -2.522700 -6.952500 8.521441 -3.507078 -14.990028 -1.415894 -11.423724 32.708794 1.796422 -8.572879 7.913900 -7.213700 15.509200 -49.677900 0.818448 8.168208 -2.086736 4.270770 4.092239 3.522770 2.781599 -8.571794 3.585223 4.969700 -2.066800 -3.230800 -66.924203 23.258908 67.079064 23.470539 -43.459405 -11.051794 -1.491958 -3.872667 -18.355086 -7.125000 0.000000 0.000000 54.203627 54.371675 2.765365 -6.229918 10.416187 -3.366920 -4.411282 -3.096714 57.141789 7.125000 0.000000 0.000000 
8.863258 17.151639 5.384650 -153.841397 60.597637 -145.643519 -15.597206 3.942321 -42.870129 22.102943 22.381713 96.380580 0.526972 -2.304244 10.599171 0.098800 -2.027100 -5.580400 8.612972 -3.652179 -13.136578 -0.934703 -10.821566 31.271023 0.625640 -6.495775 10.055782 -7.003100 15.334500 -48.885900 0.765093 8.880048 -2.044782 4.288884 4.521444 3.718574 2.949017 -9.564187 3.630895 5.199700 -2.500500 -3.056400 -65.592113 23.039963 68.348763 23.872350 -43.745713 -11.286307 -1.494004 -3.916357 -17.902201 -7.125000 0.000000 0.000000 51.520098 54.318049 -15.701219 -3.576148 6.632888 -2.470516 -4.434194 -2.955506 64.055061 7.125000 0.000000 0.000000 
